<?xml version="1.0" encoding="utf-8"?>
<svg version="1.1" xmlns:xlink="http://www.w3.org/1999/xlink" width="32px" height="40px" xmlns="http://www.w3.org/2000/svg">
  <g transform="matrix(1 0 0 1 -360 -371 )">
    <path d="M 32 34.7451227734375  C 31.944049921875 37.6061830078125  29.742742421875 39.930047421875  27.0373366796875 40  L 4.9624634375 40  C 2.2552189453125 39.930047421875  0.0559100781250006 37.6061830078125  0 34.7451228125  L 0 19.202021015625  C 0.0559100781250006 16.344798203125  2.25525890625 14.02097375  4.9624634375 14.02097375  L 6.235400390625 14.02097375  C 6.1050087890625 13.3748118359375  6.034896328125 12.709223125  6.034896328125 12.027965  L 6.034896328125 10.03495625  C 6.034896328125 4.530848046875  10.495831796875 0.0699525390624978  16.0000199609375 0.0699525390624978  C 21.50212953125 0.0699525390624978  25.965023671875 4.530848046875  25.965023671875 10.03495625  L 25.965023671875 12.027965  C 25.965023671875 12.709183125  25.89487125 13.3748118359375  25.764519609375 14.02097375  L 27.037336640625 14.02097375  C 29.7427423828125 14.02097375  31.9440498828125 16.344798203125  32 19.202021015625  L 32 34.7451227734375  Z M 11.973070234375 23.9860174609375  C 11.9730702734375 25.465174609375  12.7983107421875 26.7419489453125  14.0069312890625 27.427044453125  L 14.0069312890625 31.958052421875  C 14.0069312890625 33.055708203125  14.9003255859375 33.951021171875  16.0000199609375 33.951021171875  C 17.099594453125 33.951021171875  17.9929887109375 33.055708203125  17.9929887109375 31.958052421875  L 17.99298875 27.427044453125  C 19.201529375 26.7419489453125  20.024811171875 25.465174609375  20.024811171875 23.9860174609375  C 20.024811171875 21.78279125  18.2225530859375 20  16.0000199609375 20  C 13.7753283203125 20  11.973070234375 21.78279125  11.973070234375 23.9860174609375  Z M 21.97900625 14  L 21.97900625 10.0349562890625  C 21.97900625 6.732115625  19.3028606640625 4.055930078125  16.00002 4.055930078125  C 12.697099375 4.055930078125  10.020913828125 6.7320756640625  10.020913828125 10.0349562890625  L 10.020913828125 14  L 21.97900625 14  Z " fill-rule="nonzero" fill="#f59a23" stroke="none" transform="matrix(1 0 0 1 360 371 )" />
  </g>
</svg>