<?xml version="1.0" encoding="utf-8"?>
<svg version="1.1" xmlns:xlink="http://www.w3.org/1999/xlink" width="25px" height="40px" xmlns="http://www.w3.org/2000/svg">
  <g transform="matrix(1 0 0 1 -363 -508 )">
    <path d="M 24 2.79750128515625  C 24.0023504179687 1.7462400546875  23.1500342871094 0.893923923828125  22.098773015625 1  L 2.11108466015625 1  C 1.0598234296875 0.893923923828125  0.207507298828128 1.74628201367187  0.207507298828128 2.79750128515625  L 0.207507298828128 37.2024987148437  C 0.207507298828128 38.2537599453125  1.05986538867188 39.1060760761719  2.11108466015625 39  L 22.098773015625 39  C 23.1500342460938 39.1060760761719  24.0023503769531 38.2537179863281  24 37.2024987148437  L 24 2.79750128515625  Z M 14.2492549980469 34.981952234375  C 14.2492549980469 36.1660953945313  13.2890719980469 37.1262783945312  12.1049288378906 37.1262783945312  C 10.92074371875 37.1262783945312  9.96060267773438 36.1661373535156  9.96060267773438 34.981952234375  C 9.96060267773438 33.7977671152344  10.92074371875 32.8376260742188  12.1049288378906 32.8376260742188  C 13.2891139570313 32.8376260742188  14.2492549980469 33.7977671152344  14.2492549980469 34.981952234375  Z M 22 5  L 22 30  L 2.11108466015625 30  L 2.11108470117187 5  L 22 5  Z " fill-rule="nonzero" fill="#f59a23" stroke="none" transform="matrix(1 0 0 1 363 508 )" />
  </g>
</svg>