<?xml version="1.0" encoding="utf-8"?>
<svg version="1.1" xmlns:xlink="http://www.w3.org/1999/xlink" width="18px" height="18px" xmlns="http://www.w3.org/2000/svg">
  <defs>
    <mask fill="white" id="clip308">
      <path d="M 0 9  C 0 3.96000000000004  3.96000000000004 0  9 0  C 14.04 0  18 3.96000000000004  18 9  C 18 14.04  14.04 18  9 18  C 6.90377881283484 18  4.99438344478199 17.3149719965885  3.479024605012 16.1521266989359  C 1.35096613786641 14.5191123153426  0 11.9437788128349  0 9  Z " fill-rule="evenodd" />
    </mask>
  </defs>
  <g transform="matrix(1 0 0 1 -903 -503 )">
    <path d="M 0 9  C 0 3.96000000000004  3.96000000000004 0  9 0  C 14.04 0  18 3.96000000000004  18 9  C 18 14.04  14.04 18  9 18  C 6.90377881283484 18  4.99438344478199 17.3149719965885  3.479024605012 16.1521266989359  C 1.35096613786641 14.5191123153426  0 11.9437788128349  0 9  Z " fill-rule="nonzero" fill="#ffffff" stroke="none" transform="matrix(1 0 0 1 903 503 )" />
    <path d="M 0 9  C 0 3.96000000000004  3.96000000000004 0  9 0  C 14.04 0  18 3.96000000000004  18 9  C 18 14.04  14.04 18  9 18  C 6.90377881283484 18  4.99438344478199 17.3149719965885  3.479024605012 16.1521266989359  C 1.35096613786641 14.5191123153426  0 11.9437788128349  0 9  Z " stroke-width="2" stroke="#e4e4e4" fill="none" transform="matrix(1 0 0 1 903 503 )" mask="url(#clip308)" />
  </g>
</svg>