<?xml version="1.0" encoding="utf-8"?>
<svg version="1.1" xmlns:xlink="http://www.w3.org/1999/xlink" width="87px" height="20px" xmlns="http://www.w3.org/2000/svg">
  <g transform="matrix(1 0 0 1 -663 -371 )">
    <path d="M 742.471269842801 372  C 742.471269842801 372  743.467214329742 372.114476377809  743.467214329742 372.114476377809  C 743.467214329742 372.114476377809  748.923971189488 381  748.923971189488 381  C 748.923971189488 381  743.467214329742 389.885523622191  743.467214329742 389.885523622191  C 743.467214329742 389.885523622191  742.471269842801 390  742.471269842801 390  C 742.471269842801 390  664 390  664 390  C 664 390  664 372  664 372  C 664 372  742.471269842801 372  742.471269842801 372  Z " fill-rule="nonzero" fill="#f4d2d2" stroke="none" />
    <path d="M 742.2356349214 371.5  C 742.2356349214 371.5  743.733607164871 371.67218071764  743.733607164871 371.67218071764  C 743.733607164871 371.67218071764  749.461985594744 381  749.461985594744 381  C 749.461985594744 381  743.733607164871 390.32781928236  743.733607164871 390.32781928236  C 743.733607164871 390.32781928236  742.2356349214 390.5  742.2356349214 390.5  C 742.2356349214 390.5  663.5 390.5  663.5 390.5  C 663.5 390.5  663.5 371.5  663.5 371.5  C 663.5 371.5  742.2356349214 371.5  742.2356349214 371.5  Z " stroke-width="1" stroke="#f04844" fill="none" stroke-opacity="0.498039215686275" />
  </g>
</svg>