<?xml version="1.0" encoding="utf-8"?>
<svg version="1.1" xmlns:xlink="http://www.w3.org/1999/xlink" width="87px" height="20px" xmlns="http://www.w3.org/2000/svg">
  <g transform="matrix(1 0 0 1 -673 -363 )">
    <path d="M 752.471269842801 364  C 752.471269842801 364  753.467214329742 364.114476377809  753.467214329742 364.114476377809  C 753.467214329742 364.114476377809  758.923971189488 373  758.923971189488 373  C 758.923971189488 373  753.467214329742 381.885523622191  753.467214329742 381.885523622191  C 753.467214329742 381.885523622191  752.471269842801 382  752.471269842801 382  C 752.471269842801 382  674 382  674 382  C 674 382  674 364  674 364  C 674 364  752.471269842801 364  752.471269842801 364  Z " fill-rule="nonzero" fill="#f4d2d2" stroke="none" />
    <path d="M 752.2356349214 363.5  C 752.2356349214 363.5  753.733607164871 363.67218071764  753.733607164871 363.67218071764  C 753.733607164871 363.67218071764  759.461985594744 373  759.461985594744 373  C 759.461985594744 373  753.733607164871 382.32781928236  753.733607164871 382.32781928236  C 753.733607164871 382.32781928236  752.2356349214 382.5  752.2356349214 382.5  C 752.2356349214 382.5  673.5 382.5  673.5 382.5  C 673.5 382.5  673.5 363.5  673.5 363.5  C 673.5 363.5  752.2356349214 363.5  752.2356349214 363.5  Z " stroke-width="1" stroke="#f04844" fill="none" stroke-opacity="0.498039215686275" />
  </g>
</svg>