<?xml version="1.0" encoding="utf-8"?>
<svg version="1.1" xmlns:xlink="http://www.w3.org/1999/xlink" width="149px" height="40px" xmlns="http://www.w3.org/2000/svg">
  <g transform="matrix(1 0 0 1 -230 -150 )">
    <path d="M 230.5 178.893356643357  C 230.5 178.893356643357  230.5 150.5  230.5 150.5  C 230.5 150.5  378.5 150.5  378.5 150.5  C 378.5 150.5  378.5 178.893356643357  378.5 178.893356643357  C 378.5 178.893356643357  375.831593673734 178.893356643357  375.831593673734 178.893356643357  C 375.831593673734 178.893356643357  366.599622514025 188.619445739833  366.599622514025 188.619445739833  C 366.599622514025 188.619445739833  356.244366014016 178.893356643357  356.244366014016 178.893356643357  C 356.244366014016 178.893356643357  230.5 178.893356643357  230.5 178.893356643357  Z " fill-rule="nonzero" fill="#ffffff" stroke="none" />
    <path d="M 230 179.393356643357  C 230 179.393356643357  230 150  230 150  C 230 150  379 150  379 150  C 379 150  379 179.393356643357  379 179.393356643357  C 379 179.393356643357  376.046374468462 179.393356643357  376.046374468462 179.393356643357  C 376.046374468462 179.393356643357  366.619852941176 189.324408924409  366.619852941176 189.324408924409  C 366.619852941176 189.324408924409  356.046374468462 179.393356643357  356.046374468462 179.393356643357  C 356.046374468462 179.393356643357  230 179.393356643357  230 179.393356643357  Z M 231 178.393356643357  C 231 178.393356643357  356.442357559571 178.393356643357  356.442357559571 178.393356643357  C 356.442357559571 178.393356643357  366.579392086874 187.914482555257  366.579392086874 187.914482555257  C 366.579392086874 187.914482555257  375.616812879006 178.393356643357  375.616812879006 178.393356643357  C 375.616812879006 178.393356643357  378 178.393356643357  378 178.393356643357  C 378 178.393356643357  378 151  378 151  C 378 151  231 151  231 151  C 231 151  231 178.393356643357  231 178.393356643357  Z " fill-rule="nonzero" fill="#e4e4e4" stroke="none" />
  </g>
</svg>