<?xml version="1.0" encoding="utf-8"?>
<svg version="1.1" xmlns:xlink="http://www.w3.org/1999/xlink" width="37px" height="29px" xmlns="http://www.w3.org/2000/svg">
  <g transform="matrix(1 0 0 1 -1039 -986 )">
    <path d="M 36 3.2890625  C 36.4375 1.52734375  34.9720703125 0.0859375  33.1783203125 0  L 3.8216796875 0  C 2.0279296875 0.0859375  0.5625 1.52734375  1 3.2890625  L 1 22.5078125  C 0.5625 24.26953125  2.0279296875 25.7109375  3.8216796875 25.7109375  L 11.9736328125 25.7109375  L 11.9736328125 29  L 25.018359375 29  L 25.018359375 25.7109375  L 33.1703125 25.7109375  C 34.9640625 25.7109375  36.4134765625 24.26953125  36 22.5078125  L 36 3.2890625  Z M 33 22.5078125  L 33.1783203125 22  L 4 22  L 4 3.2890625  L 33 3.2890625  L 33 22.5078125  Z " fill-rule="nonzero" fill="#7f7f7f" stroke="none" transform="matrix(1 0 0 1 1039 986 )" />
  </g>
</svg>