<?xml version="1.0" encoding="utf-8"?>
<svg version="1.1" xmlns:xlink="http://www.w3.org/1999/xlink" width="23px" height="37px" xmlns="http://www.w3.org/2000/svg">
  <g transform="matrix(1 0 0 1 -1198 -982 )">
    <path d="M 10.859134765625 3.765625  C 10.859134765625 5.54528125  12.282923828125 6.96875  14.0625 6.96875  C 15.842076171875 6.96875  17.265384765625 5.54528125  17.265384765625 3.765625  C 17.265384765625 1.985888671875  15.842076171875 0.5625  14.0625 0.5625  C 12.282923828125 0.5625  10.859134765625 1.985888671875  10.859134765625 3.765625  Z M 12.43803515625 13.546046875  L 14.0625 16.578125  L 22.390625 16.578125  L 22.390625 13.375  L 16.625 13.375  L 13.03733984375 7.822943359375  C 12.4208984375 6.888671875  11.58504296875 6.370646484375  10.560283203125 6.370646484375  C 10.304193359375 6.370646484375  9.853353515625 6.41316796875  9.53536328125 6.51054296875  L 0.609375 9.53125  L 0.609375 18.5  L 3.8125 18.5  L 3.8125 12.09375  L 7.058146484375 10.8125  L 0.609375 36.4375  L 3.8125 36.4375  L 8.35276953125 23.282986328125  L 12.380859375 28.75  L 12.380859375 36.4375  L 15 36.4375  L 15 26.1875  L 10.856892578125 18.5  L 12.43803515625 13.546046875  Z " fill-rule="nonzero" fill="#7f7f7f" stroke="none" transform="matrix(1 0 0 1 1198 982 )" />
  </g>
</svg>