<?xml version="1.0" encoding="utf-8"?>
<svg version="1.1" xmlns:xlink="http://www.w3.org/1999/xlink" width="29px" height="35px" xmlns="http://www.w3.org/2000/svg">
  <g transform="matrix(1 0 0 1 -1043 -1050 )">
    <path d="M 28.59375 7.67713671875  C 28.59375 1.6980234375  22.016453125 0.84375  14.5 0.84375  C 6.983546875 0.84375  0.40625 1.6980234375  0.40625 7.67713671875  L 0.40625 24.76036328125  C 0.40625 28.09193359375  3.05379296875 30.7394765625  6.385443359375 30.7394765625  L 4.25 32.875  L 4.25 34  L 24.75 34  L 24.75 32.875  L 22.614556640625 30.7394765625  C 25.946126953125 30.7394765625  28.59375 28.09193359375  28.59375 24.76036328125  L 28.59375 7.67713671875  Z M 9.375 25.1875  C 9.375 26.639716796875  8.264796875 27.75  6.8125 27.75  C 5.360203125 27.75  4.25 26.639716796875  4.25 25.1875  C 4.25 23.735123046875  5.360203125 22.625  6.8125 22.625  C 8.264796875 22.625  9.375 23.735123046875  9.375 25.1875  Z M 13.21875 8.53125  L 13.21875 16.21875  L 4.25 16.21875  L 4.25 8.53125  L 13.21875 8.53125  Z M 24.75 25.1875  C 24.75 26.639716796875  23.639796875 27.75  22.1875 27.75  C 20.735203125 27.75  19.625 26.639716796875  19.625 25.1875  C 19.625 23.735123046875  20.735203125 22.625  22.1875 22.625  C 23.639796875 22.625  24.75 23.735123046875  24.75 25.1875  Z M 24.75 8.53125  L 24.75 16.21875  L 15.78125 16.21875  L 15.78125 8.53125  L 24.75 8.53125  Z " fill-rule="nonzero" fill="#7f7f7f" stroke="none" transform="matrix(1 0 0 1 1043 1050 )" />
  </g>
</svg>