<?xml version="1.0" encoding="utf-8"?>
<svg version="1.1" xmlns:xlink="http://www.w3.org/1999/xlink" width="33px" height="31px" xmlns="http://www.w3.org/2000/svg">
  <g transform="matrix(1 0 0 1 -1193 -1052 )">
    <path d="M 16.6431640625 25.75  C 14.7533203125 25.75  13.2318359375 24.2125  13.2318359375 22.3306640625  L 13.2318359375 8.6693359375  C 13.2318359375 6.7875  14.7533203125 5.25  16.651171875 5.25  L 32.4265625 5.25  L 32.4265625 3.5443359375  C 32.4265625 1.6625  30.9130859375 0.124999999999999  29.0392578125 0.124999999999999  L 4.3671875 0.124999999999999  C 2.4693359375 0.124999999999999  0.84375 1.6064453125  1 3.48828125  L 1 27.51171875  C 0.84375 29.3935546875  2.4693359375 30.875  4.3671875 30.875  L 29.03125 30.875  C 30.9130859375 30.875  32.4185546875 29.3375  32.4185546875 27.4556640625  L 32.4185546875 25.75  L 16.6431640625 25.75  Z " fill-rule="nonzero" fill="#7f7f7f" stroke="none" transform="matrix(1 0 0 1 1193 1052 )" />
  </g>
</svg>