<?xml version="1.0" encoding="utf-8"?>
<svg version="1.1" xmlns:xlink="http://www.w3.org/1999/xlink" width="19px" height="15px" xmlns="http://www.w3.org/2000/svg">
  <g transform="matrix(1 0 0 1 -1209 -1060 )">
    <path d="M 1.900390625 0.61328125  C 1.195703125 0.61328125  0.619140625 1.18984375  0.619140625 1.89453125  L 0.619140625 13.10546875  C 0.619140625 13.81015625  1.195703125 14.38671875  1.900390625 14.38671875  L 16.875 14.38671875  C 17.5796875 14.38671875  18.15625 13.81015625  18 13.10546875  L 18 1.89453125  C 18.15625 1.18984375  17.5796875 0.61328125  16.875 0.61328125  L 1.900390625 0.61328125  Z M 9.1875 7.66015625  C 9.0994140625 8.94140625  8.06640625 9.9744140625  6.7931640625 10.0544921875  C 5.24765625 10.1505859375  3.9744140625 8.87734375  4.0705078125 7.3318359375  C 4.1505859375 6.05859375  5.18359375 5.0255859375  6.46484375 4.9375  C 8.0103515625 4.84140625  9.28359375 6.1146484375  9.1875 7.66015625  Z " fill-rule="nonzero" fill="#7f7f7f" stroke="none" transform="matrix(1 0 0 1 1209 1060 )" />
  </g>
</svg>